<?xml version="1.0" standalone="no"?><!DOCTYPE svg PUBLIC "-//W3C//DTD SVG 1.1//EN" "http://www.w3.org/Graphics/SVG/1.1/DTD/svg11.dtd"><svg t="1592296767652" class="icon" viewBox="0 0 1024 1024" version="1.1" xmlns="http://www.w3.org/2000/svg" p-id="9071" xmlns:xlink="http://www.w3.org/1999/xlink" width="200" height="200"><defs><style type="text/css"></style></defs><path d="M896 0H128C57.4 0 0 57.4 0 128v576c0 70.6 57.4 128 128 128h192v168c0 14.2 11.6 24 24 24 4.8 0 9.8-1.4 14.2-4.8L608 832h288c70.6 0 128-57.4 128-128V128c0-70.6-57.4-128-128-128z m32 704c0 17.6-14.4 32-32 32H576l-25.6 19.2L416 856v-120H128c-17.6 0-32-14.4-32-32V128c0-17.6 14.4-32 32-32h768c17.6 0 32 14.4 32 32v576z" p-id="9072"></path></svg>