<?xml version="1.0" encoding="UTF-8" standalone="no"?>
<svg
   xmlns:dc="http://purl.org/dc/elements/1.1/"
   xmlns:cc="http://creativecommons.org/ns#"
   xmlns:rdf="http://www.w3.org/1999/02/22-rdf-syntax-ns#"
   xmlns:svg="http://www.w3.org/2000/svg"
   xmlns="http://www.w3.org/2000/svg"
   xmlns:sodipodi="http://sodipodi.sourceforge.net/DTD/sodipodi-0.dtd"
   xmlns:inkscape="http://www.inkscape.org/namespaces/inkscape"
   version="1.1"
   id="svg2"
   xml:space="preserve"
   width="1280"
   height="746.66669"
   viewBox="0 0 1280 746.66669"
   sodipodi:docname="大鱼LOGO.ai"><metadata
     id="metadata8"><rdf:RDF><cc:Work
         rdf:about=""><dc:format>image/svg+xml</dc:format><dc:type
           rdf:resource="http://purl.org/dc/dcmitype/StillImage" /></cc:Work></rdf:RDF></metadata><defs
     id="defs6"><clipPath
       clipPathUnits="userSpaceOnUse"
       id="clipPath18"><path
         d="m 784.376,560 c -11.2,-10.213 -25.563,-17.017 -41.448,-18.773 v 0 l -10e-4,-0.45 -196.5,10e-4 -10e-4,-0.451 -1.022,-0.12 c -33.673,-4.199 -60.289,-31.113 -64.027,-64.922 v 0 h -0.899 c -3.777,34.15 -30.896,61.266 -65.05,65.042 v 0 l -10e-4,0.451 -196.5,-10e-4 -0.001,0.45 c -15.885,1.756 -30.247,8.56 -41.448,18.773 v 0 h -24.051 v -84.715 l 0.042,-0.042 c 1.929,-95.37 70.432,-174.4 160.942,-192.518 v 0 c 2.272,0.117 4.559,0.176 6.86,0.176 v 0 c 72.349,0 131,-58.644 131,-130.985 v 0 c 0,-11.899 -1.587,-23.428 -4.562,-34.386 v 0 c 14.165,-3.661 28.73,-4.999 43.518,-5.421 v 0 c 8.169,-0.233 16.311,0.153 24.449,0.21 v 0 c -3.959,12.492 -6.093,25.795 -6.093,39.597 v 0 c 0,72.341 58.652,130.985 131,130.985 v 0 c 2.301,0 4.589,-0.059 6.86,-0.176 v 0 c 90.51,18.118 159.014,97.148 160.942,192.518 v 0 l 0.042,0.042 V 560 Z M 440.965,98.603 l 39.963,0.003 0.955,-0.003 c -6.985,0.175 -14.484,1.038 -22.009,1.249 v 0 c -5.757,0.163 -11.272,2.063 -16.744,3.899 v 0 c -0.686,-1.734 -1.408,-3.45 -2.165,-5.148 m 48.149,0.138 c -0.886,-0.066 -1.784,-0.11 -2.694,-0.136 v 0 l 34.469,-0.002 -0.393,0.891 c -0.1,0.228 -0.198,0.456 -0.295,0.683 v 0 c -9.855,-1.295 -19.946,-1.552 -31.087,-1.436"
         id="path16" /></clipPath><clipPath
       clipPathUnits="userSpaceOnUse"
       id="clipPath26"><path
         d="M -19.5729,780.271 H 980.427 v -1000 H -19.5729 Z"
         id="path24" /></clipPath><linearGradient
       x1="0"
       y1="0"
       x2="0"
       y2="1024"
       gradientUnits="userSpaceOnUse"
       gradientTransform="matrix(1,0,0,-1,153.42725,606.26959)"
       id="linearGradient36"><stop
         style="stop-opacity:1;stop-color:#9cceff"
         offset="0"
         id="stop32" /><stop
         style="stop-opacity:1;stop-color:#318ee9"
         offset="1"
         id="stop34" /></linearGradient><linearGradient
       x1="327.5"
       y1="0"
       x2="327.5"
       y2="506.48801"
       gradientUnits="userSpaceOnUse"
       gradientTransform="matrix(1,0,0,-1,153.42725,606.26959)"
       spreadMethod="pad"
       id="linearGradient68"><stop
         style="stop-opacity:1;stop-color:#9cceff"
         offset="0"
         id="stop64" /><stop
         style="stop-opacity:1;stop-color:#318ee9"
         offset="1"
         id="stop66" /></linearGradient><clipPath
       clipPathUnits="userSpaceOnUse"
       id="clipPath78"><path
         d="m 584.87,146.596 c 0.278,-0.711 0.911,-1.027 1.642,-1.134 v 0 c 11.889,-1.737 23.329,-5.278 34.853,-8.578 v 0 c 13.994,-4.005 27.667,-8.788 39.743,-17.058 v 0 c 8.788,-6.021 16.362,-13.561 14.624,-25.776 v 0 c -1.222,-8.611 -5.501,-15.9 -12.066,-21.532 v 0 c -5.573,-4.785 -11.795,-8.627 -18.179,-12.299 v 0 C 625.646,48.813 604.098,41.858 582.547,34.927 v 0 c -15.76,-5.07 -31.958,-8.43 -48.401,-10.052 v 0 l 61.213,2.418 c 14.091,2.436 27.975,5.983 41.667,10.241 v 0 c 20.81,6.471 40.971,14.259 56.997,29.942 v 0 c 9.502,9.296 14.345,20.356 11.006,34.036 v 0 c -2.617,10.72 -10.127,17.547 -18.017,24.378 v 0 c -7.343,6.362 -30.009,13.233 -32.226,13.913 v 0 c -10.673,3.281 -21.711,4.497 -32.659,6.245 v 0 c -5.973,0.953 -11.987,0.912 -17.999,0.872 v 0 c -5.687,-0.039 -11.374,-0.077 -17.024,0.726 v 0 c -0.219,0.031 -0.453,0.059 -0.686,0.059 v 0 c -0.624,0 -1.239,-0.204 -1.548,-1.109"
         id="path76" /></clipPath><clipPath
       clipPathUnits="userSpaceOnUse"
       id="clipPath86"><path
         d="M -19.5729,780.271 H 980.427 v -1000 H -19.5729 Z"
         id="path84" /></clipPath><linearGradient
       x1="0"
       y1="0"
       x2="0"
       y2="1024"
       gradientUnits="userSpaceOnUse"
       gradientTransform="matrix(1,0,0,-1,534.14606,147.70546)"
       id="linearGradient96"><stop
         style="stop-opacity:1;stop-color:#9cceff"
         offset="0"
         id="stop92" /><stop
         style="stop-opacity:1;stop-color:#318ee9"
         offset="1"
         id="stop94" /></linearGradient><linearGradient
       x1="85.968803"
       y1="0"
       x2="85.968803"
       y2="122.545"
       gradientUnits="userSpaceOnUse"
       gradientTransform="matrix(1,0,0,-1,534.14606,147.70546)"
       spreadMethod="pad"
       id="linearGradient128"><stop
         style="stop-opacity:1;stop-color:#9cceff"
         offset="0"
         id="stop124" /><stop
         style="stop-opacity:1;stop-color:#318ee9"
         offset="1"
         id="stop126" /></linearGradient><clipPath
       clipPathUnits="userSpaceOnUse"
       id="clipPath138"><path
         d="m 246.692,147.493 c -13.33,-0.666 -26.094,-3.999 -38.523,-8.428 v 0 C 193.01,133.661 178.642,126.85 167.274,115.07 v 0 c -9.238,-9.571 -13.472,-20.286 -13.847,-30.933 v 0 -3.133 c 0.196,-5.599 1.433,-11.149 3.544,-16.466 v 0 c 6.754,-17.012 19.358,-29.831 34.177,-40.522 v 0 c 7.271,-5.246 14.974,-9.915 22.359,-15.015 v 0 C 214.385,8.395 224.387,3.114 231.266,0 v 0 h 141.651 c -2.34,0.374 -4.679,0.763 -7.014,1.169 v 0 c -13.725,2.388 -27.325,5.336 -40.779,9.062 v 0 c -12.297,3.407 -24.372,7.351 -36.265,11.85 v 0 c -12.88,4.871 -25.351,10.564 -37.594,16.915 v 0 C 233.76,48.078 217.319,58.37 204.911,73.669 v 0 c -10.377,12.795 -12.324,26.624 -0.85,40.66 v 0 c 7.329,8.968 17.232,14.567 27.477,19.595 v 0 c 5.965,2.927 12.174,5.377 18.258,8.072 v 0 c 1.678,0.743 3.512,1.932 3.148,3.767 v 0 c -0.403,2.035 -2.736,1.82 -4.486,1.937 v 0 c -0.049,0.003 -0.097,0.004 -0.145,0.004 v 0 c -0.535,0 -1.079,-0.184 -1.621,-0.211 m 474.168,-7.506 c -1.159,-0.006 -2.542,0.048 -2.953,-1.389 v 0 c -0.34,-1.192 0.695,-1.817 1.478,-2.474 v 0 c 2.267,-1.905 4.718,-3.533 7.467,-4.716 v 0 c 12.26,-5.273 24.429,-10.641 33.113,-21.307 v 0 C 770.147,97.592 774.7,82.24 768.169,68.316 v 0 C 761.771,54.675 750.736,45.725 738.156,38.255 v 0 C 727.107,31.693 715.351,26.593 703.149,22.269 v 0 C 687.196,16.616 670.918,12.137 654.489,8.234 v 0 C 640.625,4.942 626.612,2.281 612.521,0 v 0 h 128.021 c 13.661,6.678 26.654,14.489 38.587,24.154 v 0 c 11.61,9.404 21.851,19.964 26.578,34.297 v 0 c 6.417,19.472 1.118,36.787 -12.087,51.921 v 0 c -13.204,15.132 -29.958,24.421 -50.166,27.507 v 0 c -7.332,1.119 -14.672,2.11 -22.103,2.11 v 0 c -0.163,0 -0.328,-0.001 -0.491,-0.002"
         id="path136" /></clipPath><clipPath
       clipPathUnits="userSpaceOnUse"
       id="clipPath146"><path
         d="M -19.5729,780.271 H 980.427 v -1000 H -19.5729 Z"
         id="path144" /></clipPath><linearGradient
       x1="0"
       y1="0"
       x2="0"
       y2="1024"
       gradientUnits="userSpaceOnUse"
       gradientTransform="matrix(1,0,0,-1,153.42725,147.70546)"
       id="linearGradient156"><stop
         style="stop-opacity:1;stop-color:#9cceff"
         offset="0"
         id="stop152" /><stop
         style="stop-opacity:1;stop-color:#318ee9"
         offset="1"
         id="stop154" /></linearGradient><linearGradient
       x1="327.5"
       y1="0"
       x2="327.5"
       y2="191.987"
       gradientUnits="userSpaceOnUse"
       gradientTransform="matrix(1,0,0,-1,153.42725,147.70546)"
       spreadMethod="pad"
       id="linearGradient188"><stop
         style="stop-opacity:1;stop-color:#9cceff"
         offset="0"
         id="stop184" /><stop
         style="stop-opacity:1;stop-color:#318ee9"
         offset="1"
         id="stop186" /></linearGradient><clipPath
       clipPathUnits="userSpaceOnUse"
       id="clipPath198"><path
         d="m 352.993,163.949 c -10.453,-0.972 -20.714,-2.935 -30.627,-6.412 v 0 c -17.442,-6.118 -33.118,-14.624 -41.904,-32.155 v 0 c -4.571,-9.121 -5.713,-18.377 -2.028,-28.177 v 0 C 282.793,85.612 291.6,77.98 301.396,71.6 v 0 c 20.351,-13.249 43.301,-19.988 66.869,-24.25 v 0 c 25.769,-4.662 51.817,-7.077 78.091,-5.724 v 0 c 4.593,0.082 9.19,0.04 13.788,0 v 0 c 9.446,-0.086 18.897,-0.17 28.332,0.822 v 0 c 2.624,0.274 4.954,0.977 7.177,2.247 v 0 c 1.112,0.637 1.818,1.595 1.613,2.955 v 0 c -0.184,1.223 -1.133,1.667 -2.204,1.938 v 0 c -2.456,0.624 -4.877,1.609 -7.369,1.83 v 0 c -15.897,1.411 -31.767,2.893 -47.571,5.296 v 0 c -13.134,1.999 -26.28,4.07 -39.178,7.053 v 0 c -14.496,3.352 -28.99,6.958 -42.974,12.374 v 0 c -14.674,5.684 -28.155,12.704 -38.283,25.384 v 0 c -9.469,11.856 -8.391,26.871 3.102,36.811 v 0 c 7.564,6.545 16.243,11.101 25.549,14.55 v 0 c 5.451,2.018 10.939,3.943 16.372,6.013 v 0 c 1.186,0.451 2.792,1.024 2.402,2.759 v 0 c -0.318,1.411 -1.818,1.292 -2.973,1.527 v 0 c -2.719,0.557 -5.448,0.898 -8.203,0.898 v 0 c -0.977,0 -1.958,-0.043 -2.943,-0.134"
         id="path196" /></clipPath><clipPath
       clipPathUnits="userSpaceOnUse"
       id="clipPath206"><path
         d="M -19.5729,780.271 H 980.427 v -1000 H -19.5729 Z"
         id="path204" /></clipPath><linearGradient
       x1="0"
       y1="0"
       x2="0"
       y2="1024"
       gradientUnits="userSpaceOnUse"
       gradientTransform="matrix(1,0,0,-1,276.23975,164.08281)"
       id="linearGradient216"><stop
         style="stop-opacity:1;stop-color:#9cceff"
         offset="0"
         id="stop212" /><stop
         style="stop-opacity:1;stop-color:#318ee9"
         offset="1"
         id="stop214" /></linearGradient><linearGradient
       x1="110.531"
       y1="0"
       x2="110.531"
       y2="122.545"
       gradientUnits="userSpaceOnUse"
       gradientTransform="matrix(1,0,0,-1,276.23975,164.08281)"
       spreadMethod="pad"
       id="linearGradient248"><stop
         style="stop-opacity:1;stop-color:#9cceff"
         offset="0"
         id="stop244" /><stop
         style="stop-opacity:1;stop-color:#318ee9"
         offset="1"
         id="stop246" /></linearGradient><clipPath
       clipPathUnits="userSpaceOnUse"
       id="clipPath258"><path
         d="m 413.623,131.242 c -2.229,-0.458 -3.212,-3.131 -4.719,-4.837 v 0 c -0.447,-0.507 -0.601,-1.273 -0.836,-1.939 v 0 c -2.418,-6.843 0.515,-12.749 8.038,-17.771 v 0 c 6.977,-4.656 14.829,-7.312 22.705,-9.728 v 0 c 6.904,-2.12 13.79,-5.097 21.063,-5.303 v 0 c 10.2,-0.287 20.356,-1.772 29.24,-1.111 v 0 c 12.582,-0.132 23.826,0.214 34.903,1.991 v 0 c 9.612,1.544 19.114,3.768 28.498,6.394 v 0 c 2.64,0.739 6.461,0.769 6.178,4.099 v 0 c -0.251,2.952 -2.996,2.867 -5.42,2.783 v 0 c -0.486,-0.017 -0.958,-0.034 -1.395,-0.026 v 0 c -4.52,0.075 -8.998,-0.406 -13.481,-0.887 v 0 c -4.783,-0.514 -9.573,-1.027 -14.425,-0.864 v 0 c -5.576,0.186 -11.151,0.068 -16.732,-0.05 v 0 c -5.33,-0.113 -10.666,-0.226 -16.013,-0.073 v 0 c -17.898,0.511 -35.47,2.363 -52.401,8.053 v 0 c -8.432,2.834 -16.255,6.85 -21.36,14.601 v 0 c -0.993,1.509 -0.525,4.754 -3.06,4.755 v 0 c -0.234,0 -0.494,-0.028 -0.783,-0.087"
         id="path256" /></clipPath><clipPath
       clipPathUnits="userSpaceOnUse"
       id="clipPath266"><path
         d="M -19.5729,780.271 H 980.427 v -1000 H -19.5729 Z"
         id="path264" /></clipPath><linearGradient
       x1="0"
       y1="0"
       x2="0"
       y2="1024"
       gradientUnits="userSpaceOnUse"
       gradientTransform="matrix(1,0,0,-1,407.23975,131.32808)"
       id="linearGradient276"><stop
         style="stop-opacity:1;stop-color:#9cceff"
         offset="0"
         id="stop272" /><stop
         style="stop-opacity:1;stop-color:#318ee9"
         offset="1"
         id="stop274" /></linearGradient><linearGradient
       x1="75.734398"
       y1="0"
       x2="75.734398"
       y2="40.8484"
       gradientUnits="userSpaceOnUse"
       gradientTransform="matrix(1,0,0,-1,407.23975,131.32808)"
       spreadMethod="pad"
       id="linearGradient308"><stop
         style="stop-opacity:1;stop-color:#9cceff"
         offset="0"
         id="stop304" /><stop
         style="stop-opacity:1;stop-color:#318ee9"
         offset="1"
         id="stop306" /></linearGradient></defs><sodipodi:namedview
     pagecolor="#ffffff"
     bordercolor="#666666"
     borderopacity="1"
     objecttolerance="10"
     gridtolerance="10"
     guidetolerance="10"
     inkscape:pageopacity="0"
     inkscape:pageshadow="2"
     inkscape:window-width="640"
     inkscape:window-height="480"
     id="namedview4" /><g
     id="g10"
     inkscape:groupmode="layer"
     inkscape:label="大鱼LOGO"
     transform="matrix(1.3333333,0,0,-1.3333333,0,746.66667)"><g
       id="g12"><g
         id="g14"
         clip-path="url(#clipPath18)"><g
           id="g20"><g
             id="g22" /><g
             id="g50"><g
               clip-path="url(#clipPath26)"
               opacity="0"
               id="g48"><g
                 id="g46"><g
                   id="g44"><g
                     id="g42"><g
                       id="g40"><path
                         d="M -19.573,-219.729 H 980.428 v 1000 H -19.573 Z"
                         style="fill:url(#linearGradient36);stroke:none"
                         id="path38" /></g></g></g></g></g></g></g></g></g><g
       id="g52"><g
         id="g54"><g
           id="g60"><g
             id="g62"><path
               d="m 784.376,560 c -11.2,-10.213 -25.563,-17.017 -41.448,-18.773 v 0 l -10e-4,-0.45 -196.5,10e-4 -10e-4,-0.451 -1.022,-0.12 c -33.673,-4.199 -60.289,-31.113 -64.027,-64.922 v 0 h -0.899 c -3.777,34.15 -30.896,61.266 -65.05,65.042 v 0 l -10e-4,0.451 -196.5,-10e-4 -0.001,0.45 c -15.885,1.756 -30.247,8.56 -41.448,18.773 v 0 h -24.051 v -84.715 l 0.042,-0.042 c 1.929,-95.37 70.432,-174.4 160.942,-192.518 v 0 c 2.272,0.117 4.559,0.176 6.86,0.176 v 0 c 72.349,0 131,-58.644 131,-130.985 v 0 c 0,-11.899 -1.587,-23.428 -4.562,-34.386 v 0 c 14.165,-3.661 28.73,-4.999 43.518,-5.421 v 0 c 8.169,-0.233 16.311,0.153 24.449,0.21 v 0 c -3.959,12.492 -6.093,25.795 -6.093,39.597 v 0 c 0,72.341 58.652,130.985 131,130.985 v 0 c 2.301,0 4.589,-0.059 6.86,-0.176 v 0 c 90.51,18.118 159.014,97.148 160.942,192.518 v 0 l 0.042,0.042 V 560 Z M 440.965,98.603 l 39.963,0.003 0.955,-0.003 c -6.985,0.175 -14.484,1.038 -22.009,1.249 v 0 c -5.757,0.163 -11.272,2.063 -16.744,3.899 v 0 c -0.686,-1.734 -1.408,-3.45 -2.165,-5.148 m 48.149,0.138 c -0.886,-0.066 -1.784,-0.11 -2.694,-0.136 v 0 l 34.469,-0.002 -0.393,0.891 c -0.1,0.228 -0.198,0.456 -0.295,0.683 v 0 c -9.855,-1.295 -19.946,-1.552 -31.087,-1.436"
               style="fill:url(#linearGradient68);stroke:none"
               id="path70" /></g></g></g></g><g
       id="g72"><g
         id="g74"
         clip-path="url(#clipPath78)"><g
           id="g80"><g
             id="g82" /><g
             id="g110"><g
               clip-path="url(#clipPath86)"
               opacity="0"
               id="g108"><g
                 id="g106"><g
                   id="g104"><g
                     id="g102"><g
                       id="g100"><path
                         d="M -19.573,-219.729 H 980.428 v 1000 H -19.573 Z"
                         style="fill:url(#linearGradient96);stroke:none"
                         id="path98" /></g></g></g></g></g></g></g></g></g><g
       id="g112"><g
         id="g114"><g
           id="g120"><g
             id="g122"><path
               d="m 584.87,146.596 c 0.278,-0.711 0.911,-1.027 1.642,-1.134 v 0 c 11.889,-1.737 23.329,-5.278 34.853,-8.578 v 0 c 13.994,-4.005 27.667,-8.788 39.743,-17.058 v 0 c 8.788,-6.021 16.362,-13.561 14.624,-25.776 v 0 c -1.222,-8.611 -5.501,-15.9 -12.066,-21.532 v 0 c -5.573,-4.785 -11.795,-8.627 -18.179,-12.299 v 0 C 625.646,48.813 604.098,41.858 582.547,34.927 v 0 c -15.76,-5.07 -31.958,-8.43 -48.401,-10.052 v 0 l 61.213,2.418 c 14.091,2.436 27.975,5.983 41.667,10.241 v 0 c 20.81,6.471 40.971,14.259 56.997,29.942 v 0 c 9.502,9.296 14.345,20.356 11.006,34.036 v 0 c -2.617,10.72 -10.127,17.547 -18.017,24.378 v 0 c -7.343,6.362 -30.009,13.233 -32.226,13.913 v 0 c -10.673,3.281 -21.711,4.497 -32.659,6.245 v 0 c -5.973,0.953 -11.987,0.912 -17.999,0.872 v 0 c -5.687,-0.039 -11.374,-0.077 -17.024,0.726 v 0 c -0.219,0.031 -0.453,0.059 -0.686,0.059 v 0 c -0.624,0 -1.239,-0.204 -1.548,-1.109"
               style="fill:url(#linearGradient128);stroke:none"
               id="path130" /></g></g></g></g><g
       id="g132"><g
         id="g134"
         clip-path="url(#clipPath138)"><g
           id="g140"><g
             id="g142" /><g
             id="g170"><g
               clip-path="url(#clipPath146)"
               opacity="0"
               id="g168"><g
                 id="g166"><g
                   id="g164"><g
                     id="g162"><g
                       id="g160"><path
                         d="M -19.573,-219.729 H 980.428 v 1000 H -19.573 Z"
                         style="fill:url(#linearGradient156);stroke:none"
                         id="path158" /></g></g></g></g></g></g></g></g></g><g
       id="g172"><g
         id="g174"><g
           id="g180"><g
             id="g182"><path
               d="m 246.692,147.493 c -13.33,-0.666 -26.094,-3.999 -38.523,-8.428 v 0 C 193.01,133.661 178.642,126.85 167.274,115.07 v 0 c -9.238,-9.571 -13.472,-20.286 -13.847,-30.933 v 0 -3.133 c 0.196,-5.599 1.433,-11.149 3.544,-16.466 v 0 c 6.754,-17.012 19.358,-29.831 34.177,-40.522 v 0 c 7.271,-5.246 14.974,-9.915 22.359,-15.015 v 0 C 214.385,8.395 224.387,3.114 231.266,0 v 0 h 141.651 c -2.34,0.374 -4.679,0.763 -7.014,1.169 v 0 c -13.725,2.388 -27.325,5.336 -40.779,9.062 v 0 c -12.297,3.407 -24.372,7.351 -36.265,11.85 v 0 c -12.88,4.871 -25.351,10.564 -37.594,16.915 v 0 C 233.76,48.078 217.319,58.37 204.911,73.669 v 0 c -10.377,12.795 -12.324,26.624 -0.85,40.66 v 0 c 7.329,8.968 17.232,14.567 27.477,19.595 v 0 c 5.965,2.927 12.174,5.377 18.258,8.072 v 0 c 1.678,0.743 3.512,1.932 3.148,3.767 v 0 c -0.403,2.035 -2.736,1.82 -4.486,1.937 v 0 c -0.049,0.003 -0.097,0.004 -0.145,0.004 v 0 c -0.535,0 -1.079,-0.184 -1.621,-0.211 m 474.168,-7.506 c -1.159,-0.006 -2.542,0.048 -2.953,-1.389 v 0 c -0.34,-1.192 0.695,-1.817 1.478,-2.474 v 0 c 2.267,-1.905 4.718,-3.533 7.467,-4.716 v 0 c 12.26,-5.273 24.429,-10.641 33.113,-21.307 v 0 C 770.147,97.592 774.7,82.24 768.169,68.316 v 0 C 761.771,54.675 750.736,45.725 738.156,38.255 v 0 C 727.107,31.693 715.351,26.593 703.149,22.269 v 0 C 687.196,16.616 670.918,12.137 654.489,8.234 v 0 C 640.625,4.942 626.612,2.281 612.521,0 v 0 h 128.021 c 13.661,6.678 26.654,14.489 38.587,24.154 v 0 c 11.61,9.404 21.851,19.964 26.578,34.297 v 0 c 6.417,19.472 1.118,36.787 -12.087,51.921 v 0 c -13.204,15.132 -29.958,24.421 -50.166,27.507 v 0 c -7.332,1.119 -14.672,2.11 -22.103,2.11 v 0 c -0.163,0 -0.328,-0.001 -0.491,-0.002"
               style="fill:url(#linearGradient188);stroke:none"
               id="path190" /></g></g></g></g><g
       id="g192"><g
         id="g194"
         clip-path="url(#clipPath198)"><g
           id="g200"><g
             id="g202" /><g
             id="g230"><g
               clip-path="url(#clipPath206)"
               opacity="0"
               id="g228"><g
                 id="g226"><g
                   id="g224"><g
                     id="g222"><g
                       id="g220"><path
                         d="M -19.573,-219.729 H 980.428 v 1000 H -19.573 Z"
                         style="fill:url(#linearGradient216);stroke:none"
                         id="path218" /></g></g></g></g></g></g></g></g></g><g
       id="g232"><g
         id="g234"><g
           id="g240"><g
             id="g242"><path
               d="m 352.993,163.949 c -10.453,-0.972 -20.714,-2.935 -30.627,-6.412 v 0 c -17.442,-6.118 -33.118,-14.624 -41.904,-32.155 v 0 c -4.571,-9.121 -5.713,-18.377 -2.028,-28.177 v 0 C 282.793,85.612 291.6,77.98 301.396,71.6 v 0 c 20.351,-13.249 43.301,-19.988 66.869,-24.25 v 0 c 25.769,-4.662 51.817,-7.077 78.091,-5.724 v 0 c 4.593,0.082 9.19,0.04 13.788,0 v 0 c 9.446,-0.086 18.897,-0.17 28.332,0.822 v 0 c 2.624,0.274 4.954,0.977 7.177,2.247 v 0 c 1.112,0.637 1.818,1.595 1.613,2.955 v 0 c -0.184,1.223 -1.133,1.667 -2.204,1.938 v 0 c -2.456,0.624 -4.877,1.609 -7.369,1.83 v 0 c -15.897,1.411 -31.767,2.893 -47.571,5.296 v 0 c -13.134,1.999 -26.28,4.07 -39.178,7.053 v 0 c -14.496,3.352 -28.99,6.958 -42.974,12.374 v 0 c -14.674,5.684 -28.155,12.704 -38.283,25.384 v 0 c -9.469,11.856 -8.391,26.871 3.102,36.811 v 0 c 7.564,6.545 16.243,11.101 25.549,14.55 v 0 c 5.451,2.018 10.939,3.943 16.372,6.013 v 0 c 1.186,0.451 2.792,1.024 2.402,2.759 v 0 c -0.318,1.411 -1.818,1.292 -2.973,1.527 v 0 c -2.719,0.557 -5.448,0.898 -8.203,0.898 v 0 c -0.977,0 -1.958,-0.043 -2.943,-0.134"
               style="fill:url(#linearGradient248);stroke:none"
               id="path250" /></g></g></g></g><g
       id="g252"><g
         id="g254"
         clip-path="url(#clipPath258)"><g
           id="g260"><g
             id="g262" /><g
             id="g290"><g
               clip-path="url(#clipPath266)"
               opacity="0"
               id="g288"><g
                 id="g286"><g
                   id="g284"><g
                     id="g282"><g
                       id="g280"><path
                         d="M -19.573,-219.729 H 980.428 v 1000 H -19.573 Z"
                         style="fill:url(#linearGradient276);stroke:none"
                         id="path278" /></g></g></g></g></g></g></g></g></g><g
       id="g292"><g
         id="g294"><g
           id="g300"><g
             id="g302"><path
               d="m 413.623,131.242 c -2.229,-0.458 -3.212,-3.131 -4.719,-4.837 v 0 c -0.447,-0.507 -0.601,-1.273 -0.836,-1.939 v 0 c -2.418,-6.843 0.515,-12.749 8.038,-17.771 v 0 c 6.977,-4.656 14.829,-7.312 22.705,-9.728 v 0 c 6.904,-2.12 13.79,-5.097 21.063,-5.303 v 0 c 10.2,-0.287 20.356,-1.772 29.24,-1.111 v 0 c 12.582,-0.132 23.826,0.214 34.903,1.991 v 0 c 9.612,1.544 19.114,3.768 28.498,6.394 v 0 c 2.64,0.739 6.461,0.769 6.178,4.099 v 0 c -0.251,2.952 -2.996,2.867 -5.42,2.783 v 0 c -0.486,-0.017 -0.958,-0.034 -1.395,-0.026 v 0 c -4.52,0.075 -8.998,-0.406 -13.481,-0.887 v 0 c -4.783,-0.514 -9.573,-1.027 -14.425,-0.864 v 0 c -5.576,0.186 -11.151,0.068 -16.732,-0.05 v 0 c -5.33,-0.113 -10.666,-0.226 -16.013,-0.073 v 0 c -17.898,0.511 -35.47,2.363 -52.401,8.053 v 0 c -8.432,2.834 -16.255,6.85 -21.36,14.601 v 0 c -0.993,1.509 -0.525,4.754 -3.06,4.755 v 0 c -0.234,0 -0.494,-0.028 -0.783,-0.087"
               style="fill:url(#linearGradient308);stroke:none"
               id="path310" /></g></g></g></g></g></svg>
